<?xml version="1.0" encoding="UTF-8"?>
<svg xmlns="http://www.w3.org/2000/svg" xmlns:xlink="http://www.w3.org/1999/xlink" width="500" zoomAndPan="magnify" viewBox="0 0 375 374.999991" height="500" preserveAspectRatio="xMidYMid meet" version="1.0" style="background-color:transparent;"><defs><g/><clipPath id="a04bea6462"><rect x="0" width="196" y="0" height="375"/></clipPath></defs><rect x="-37.5" width="450" fill="none" y="-37.499999" height="449.999989" fill-opacity="1"/><rect x="-37.5" width="450" fill="none" y="-37.499999" height="449.999989" fill-opacity="1"/><g transform="matrix(1, 0, 0, 1, 94, 0)"><g clip-path="url(#a04bea6462)"><g fill="#ffbd59" fill-opacity="1"><g transform="translate(16.817326, 271.141253)"><g><path d="M 88.28125 -175.09375 C 93.539062 -174.925781 98.265625 -173.445312 102.453125 -170.65625 C 106.648438 -167.863281 109.816406 -164.082031 111.953125 -159.3125 L 169.671875 -36.5 C 171.640625 -32.550781 172.625 -28.601562 172.625 -24.65625 C 172.625 -19.726562 171.390625 -15.207031 168.921875 -11.09375 C 166.460938 -6.988281 163.175781 -3.703125 159.0625 -1.234375 C 154.945312 1.234375 150.425781 2.46875 145.5 2.46875 C 139.90625 2.46875 134.890625 1.195312 130.453125 -1.34375 C 126.015625 -3.894531 122.8125 -7.882812 120.84375 -13.3125 L 114.421875 -32.0625 L 60.90625 -32.0625 L 54.25 -13.3125 C 52.28125 -7.882812 49.113281 -3.894531 44.75 -1.34375 C 40.394531 1.195312 35.34375 2.46875 29.59375 2.46875 C 24.65625 2.46875 20.128906 1.234375 16.015625 -1.234375 C 11.910156 -3.703125 8.625 -6.988281 6.15625 -11.09375 C 3.695312 -15.207031 2.46875 -19.726562 2.46875 -24.65625 C 2.46875 -28.601562 3.453125 -32.550781 5.421875 -36.5 L 63.125 -159.3125 C 65.269531 -164.082031 68.519531 -167.90625 72.875 -170.78125 C 77.226562 -173.65625 81.953125 -175.09375 87.046875 -175.09375 C 87.378906 -175.09375 87.628906 -175.09375 87.796875 -175.09375 C 87.960938 -175.09375 88.125 -175.09375 88.28125 -175.09375 Z M 99.875 -73.984375 L 87.796875 -109 L 75.46875 -73.984375 Z M 99.875 -73.984375 "/></g></g></g><g fill="#000000" fill-opacity="1"><g transform="translate(5.91823, 260.242136)"><g><path d="M 88.429688 -179.714844 C 94.574219 -179.523438 100.105469 -177.785156 105.03125 -174.5 C 109.964844 -171.214844 113.679688 -166.78125 116.179688 -161.203125 L 173.851562 -38.464844 L 169.667969 -36.5 L 173.804688 -38.566406 C 176.101562 -33.96875 177.25 -29.335938 177.25 -24.660156 C 177.25 -18.875 175.796875 -13.5625 172.894531 -8.71875 C 170.03125 -3.949219 166.214844 -0.128906 161.441406 2.730469 C 156.601562 5.636719 151.285156 7.089844 145.5 7.089844 C 139.089844 7.089844 133.304688 5.613281 128.15625 2.652344 C 122.738281 -0.457031 118.851562 -5.253906 116.492188 -11.738281 L 110.050781 -30.5625 L 114.425781 -32.058594 L 114.425781 -27.433594 L 60.914062 -27.433594 L 60.914062 -32.058594 L 65.269531 -30.511719 L 58.613281 -11.769531 C 56.25 -5.277344 52.410156 -0.476562 47.09375 2.636719 C 42.015625 5.605469 36.183594 7.089844 29.59375 7.089844 C 23.808594 7.089844 18.492188 5.636719 13.652344 2.730469 C 8.878906 -0.128906 5.0625 -3.949219 2.199219 -8.71875 C -0.707031 -13.5625 -2.15625 -18.875 -2.15625 -24.660156 C -2.15625 -29.335938 -1.007812 -33.96875 1.289062 -38.566406 L 5.425781 -36.5 L 1.242188 -38.464844 L 58.945312 -161.277344 C 61.429688 -166.8125 65.21875 -171.265625 70.324219 -174.636719 C 75.453125 -178.023438 81.03125 -179.71875 87.054688 -179.71875 L 88.359375 -179.71875 Z M 88.140625 -170.472656 L 88.285156 -175.09375 L 88.285156 -170.46875 L 87.054688 -170.46875 C 82.882812 -170.46875 79.003906 -169.285156 75.421875 -166.917969 C 71.8125 -164.535156 69.109375 -161.34375 67.316406 -157.34375 L 9.585938 -34.480469 L 9.5625 -34.429688 C 7.914062 -31.136719 7.089844 -27.878906 7.089844 -24.660156 C 7.089844 -20.582031 8.105469 -16.855469 10.128906 -13.476562 C 12.199219 -10.027344 14.960938 -7.269531 18.410156 -5.199219 C 21.785156 -3.171875 25.515625 -2.15625 29.59375 -2.15625 C 34.511719 -2.15625 38.789062 -3.222656 42.425781 -5.347656 C 45.820312 -7.335938 48.3125 -10.507812 49.898438 -14.863281 L 57.648438 -36.683594 L 117.730469 -36.683594 L 125.183594 -14.898438 C 126.773438 -10.53125 129.296875 -7.355469 132.757812 -5.367188 C 136.484375 -3.226562 140.730469 -2.15625 145.5 -2.15625 C 149.578125 -2.15625 153.304688 -3.171875 156.683594 -5.199219 C 160.132812 -7.269531 162.894531 -10.027344 164.960938 -13.476562 C 166.988281 -16.855469 168.003906 -20.582031 168.003906 -24.660156 C 168.003906 -27.878906 167.179688 -31.136719 165.53125 -34.429688 L 165.507812 -34.480469 L 107.742188 -157.417969 C 105.96875 -161.375 103.355469 -164.503906 99.902344 -166.804688 C 96.441406 -169.113281 92.523438 -170.335938 88.140625 -170.472656 Z M 95.507812 -72.476562 L 83.421875 -107.492188 L 87.792969 -109 L 92.15625 -107.464844 L 79.824219 -72.445312 L 75.460938 -73.984375 L 75.460938 -78.605469 L 99.878906 -78.605469 L 99.878906 -73.984375 Z M 106.363281 -69.359375 L 68.933594 -69.359375 L 87.835938 -123.050781 L 104.25 -75.492188 Z M 106.363281 -69.359375 "/></g></g></g></g></g></svg>