<svg xmlns="http://www.w3.org/2000/svg" xmlns:xlink="http://www.w3.org/1999/xlink" width="500" zoomAndPan="magnify" viewBox="0 0 375 374.999991" height="500" preserveAspectRatio="xMidYMid meet" version="1.0"><defs><clipPath id="bea465f34b"><path d="M 86.746094 64.488281 L 274.246094 64.488281 L 274.246094 310.429688 L 86.746094 310.429688 Z M 86.746094 64.488281 " clip-rule="nonzero"/></clipPath></defs><rect x="-37.5" width="450" fill="#ffffff" y="-37.499999" height="449.999989" fill-opacity="1"/><rect x="-37.5" width="450" fill="#ffffff" y="-37.499999" height="449.999989" fill-opacity="1"/><path fill="#ffde59" d="M 181.921875 77.648438 C 136.601562 77.648438 99.964844 114.375 99.964844 159.605469 C 99.964844 192.167969 118.960938 220.300781 146.550781 233.511719 L 146.550781 261.550781 L 217.382812 261.550781 L 217.382812 233.511719 C 244.882812 220.300781 263.96875 192.167969 263.96875 159.605469 C 263.878906 114.375 227.152344 77.648438 181.921875 77.648438 Z M 181.921875 77.648438 " fill-opacity="1" fill-rule="nonzero"/><path fill="#d3d3d3" d="M 146.460938 261.644531 L 146.460938 290.679688 C 146.460938 300.179688 154.148438 307.867188 163.648438 307.867188 L 200.105469 307.867188 C 209.601562 307.867188 217.292969 300.179688 217.292969 290.679688 L 217.292969 261.644531 Z M 146.460938 261.644531 " fill-opacity="1" fill-rule="nonzero"/><g clip-path="url(#bea465f34b)"><path fill="#000000" d="M 181.921875 74.933594 C 135.242188 74.933594 97.25 112.925781 97.25 159.605469 C 97.25 191.445312 115.433594 220.9375 143.835938 235.230469 L 143.835938 291.3125 C 143.835938 301.714844 152.339844 310.21875 162.742188 310.21875 L 201.28125 310.21875 C 211.683594 310.21875 220.1875 301.714844 220.1875 291.3125 L 220.1875 235.320312 C 248.5 221.027344 266.773438 191.535156 266.773438 159.695312 C 266.589844 112.925781 228.597656 74.933594 181.921875 74.933594 Z M 164.191406 178.417969 C 151.707031 176.972656 145.648438 173.171875 145.648438 163.855469 C 145.648438 155.625 150.078125 151.824219 154.148438 151.824219 C 156.59375 151.824219 158.945312 153.089844 160.753906 155.261719 C 163.015625 158.066406 164.191406 162.226562 164.191406 167.292969 Z M 181.921875 184.570312 C 186.171875 184.570312 190.335938 184.480469 194.132812 184.300781 L 194.132812 258.929688 L 169.617188 258.929688 L 169.617188 184.300781 C 173.507812 184.480469 177.667969 184.570312 181.921875 184.570312 Z M 214.578125 264.355469 L 214.578125 273.222656 L 149.175781 273.222656 L 149.175781 264.355469 Z M 149.175781 278.648438 L 214.578125 278.648438 L 214.578125 287.515625 L 149.175781 287.515625 Z M 201.1875 304.703125 L 162.652344 304.703125 C 155.777344 304.703125 150.167969 299.546875 149.265625 292.941406 L 214.488281 292.941406 C 213.671875 299.546875 208.0625 304.703125 201.1875 304.703125 Z M 216.113281 231.066406 C 215.210938 231.519531 214.578125 232.515625 214.578125 233.511719 L 214.578125 258.839844 L 199.5625 258.839844 L 199.5625 183.847656 C 213.671875 182.308594 223.53125 177.695312 223.53125 163.765625 C 223.53125 152.367188 216.476562 146.304688 209.601562 146.304688 C 205.53125 146.304688 201.550781 148.296875 198.746094 151.824219 C 195.761719 155.625 194.132812 160.960938 194.132812 167.203125 L 194.132812 178.78125 C 190.515625 178.960938 186.355469 179.054688 181.921875 179.054688 C 177.488281 179.054688 173.328125 178.960938 169.710938 178.78125 L 169.710938 167.203125 C 169.710938 160.960938 168.082031 155.625 165.09375 151.824219 C 162.292969 148.296875 158.3125 146.304688 154.242188 146.304688 C 147.273438 146.304688 140.308594 152.277344 140.308594 163.765625 C 140.308594 177.695312 150.167969 182.308594 164.28125 183.847656 L 164.28125 258.929688 L 149.175781 258.929688 L 149.175781 233.601562 C 149.175781 232.515625 148.542969 231.609375 147.636719 231.15625 C 120.316406 218.042969 102.589844 190 102.589844 159.695312 C 102.589844 116.003906 138.136719 80.453125 181.832031 80.453125 C 225.523438 80.453125 261.074219 116.003906 261.074219 159.695312 C 261.164062 189.90625 243.523438 217.949219 216.113281 231.066406 Z M 199.5625 178.417969 L 199.5625 167.292969 C 199.5625 162.226562 200.738281 158.066406 203 155.261719 C 204.808594 153 207.160156 151.824219 209.601562 151.824219 C 213.671875 151.824219 218.105469 155.625 218.105469 163.855469 C 218.105469 173.171875 212.136719 176.972656 199.5625 178.417969 Z M 184.636719 2.925781 L 184.636719 50.238281 C 184.636719 51.777344 183.460938 52.953125 181.921875 52.953125 C 180.382812 52.953125 179.207031 51.777344 179.207031 50.238281 L 179.207031 2.925781 C 179.207031 1.390625 180.382812 0.214844 181.921875 0.214844 C 183.460938 0.214844 184.636719 1.390625 184.636719 2.925781 Z M 72.375 160.691406 L 24.339844 160.691406 C 22.800781 160.691406 21.625 159.511719 21.625 157.976562 C 21.625 156.4375 22.800781 155.261719 24.339844 155.261719 L 72.375 155.261719 C 73.914062 155.261719 75.089844 156.4375 75.089844 157.976562 C 75.089844 159.511719 73.914062 160.691406 72.375 160.691406 Z M 342.214844 157.976562 C 342.214844 159.511719 341.039062 160.691406 339.503906 160.691406 L 291.46875 160.691406 C 289.929688 160.691406 288.753906 159.511719 288.753906 157.976562 C 288.753906 156.4375 289.929688 155.261719 291.46875 155.261719 L 339.503906 155.261719 C 340.949219 155.261719 342.214844 156.4375 342.214844 157.976562 Z M 106.386719 79.820312 C 107.472656 80.902344 107.472656 82.621094 106.386719 83.617188 C 105.84375 84.160156 105.121094 84.433594 104.488281 84.433594 C 103.765625 84.433594 103.128906 84.160156 102.589844 83.617188 L 68.574219 50.148438 C 67.488281 49.0625 67.488281 47.34375 68.574219 46.347656 C 69.660156 45.261719 71.378906 45.261719 72.375 46.347656 Z M 295.265625 265.714844 C 296.351562 266.800781 296.351562 268.519531 295.265625 269.511719 C 294.726562 270.054688 294 270.328125 293.367188 270.328125 C 292.644531 270.328125 292.011719 270.054688 291.46875 269.511719 L 257.457031 236.042969 C 256.371094 234.957031 256.371094 233.238281 257.457031 232.242188 C 258.539062 231.15625 260.257812 231.15625 261.253906 232.242188 Z M 106.386719 232.242188 C 107.472656 233.328125 107.382812 235.046875 106.386719 236.042969 L 72.375 269.511719 C 71.832031 270.054688 71.199219 270.328125 70.476562 270.328125 C 69.75 270.328125 69.027344 270.054688 68.574219 269.511719 C 67.488281 268.425781 67.578125 266.707031 68.574219 265.714844 L 102.589844 232.242188 C 103.671875 231.15625 105.390625 231.15625 106.386719 232.242188 Z M 257.363281 83.707031 C 256.277344 82.621094 256.371094 80.902344 257.363281 79.910156 L 291.378906 46.4375 C 292.464844 45.351562 294.183594 45.445312 295.175781 46.4375 C 296.261719 47.523438 296.171875 49.242188 295.175781 50.238281 L 261.164062 83.707031 C 260.621094 84.25 259.988281 84.523438 259.265625 84.523438 C 258.632812 84.523438 257.90625 84.25 257.363281 83.707031 Z M 142.390625 57.203125 C 142.933594 58.558594 142.300781 60.1875 140.941406 60.730469 C 140.582031 60.914062 140.21875 60.914062 139.855469 60.914062 C 138.773438 60.914062 137.777344 60.277344 137.324219 59.285156 L 128.730469 38.929688 C 128.1875 37.574219 128.820312 35.945312 130.179688 35.402344 C 131.535156 34.859375 133.164062 35.492188 133.707031 36.851562 Z M 81.601562 201.757812 L 60.886719 210.171875 C 60.523438 210.351562 60.164062 210.351562 59.890625 210.351562 C 58.804688 210.351562 57.808594 209.71875 57.359375 208.632812 C 56.816406 207.277344 57.449219 205.648438 58.804688 205.105469 L 79.519531 196.691406 C 80.878906 196.148438 82.503906 196.78125 83.046875 198.140625 C 83.589844 199.679688 82.957031 201.214844 81.601562 201.757812 Z M 282.242188 114.191406 L 302.957031 105.78125 C 304.3125 105.238281 305.941406 105.871094 306.484375 107.226562 C 307.027344 108.585938 306.394531 110.214844 305.035156 110.753906 L 284.320312 119.167969 C 283.960938 119.347656 283.597656 119.347656 283.328125 119.347656 C 282.242188 119.347656 281.246094 118.714844 280.792969 117.628906 C 280.160156 116.273438 280.882812 114.734375 282.242188 114.191406 Z M 234.929688 38.929688 L 226.335938 59.285156 C 225.882812 60.277344 224.890625 60.914062 223.804688 60.914062 C 223.441406 60.914062 223.082031 60.820312 222.71875 60.730469 C 221.363281 60.1875 220.730469 58.558594 221.269531 57.203125 L 229.863281 36.851562 C 230.40625 35.492188 232.035156 34.859375 233.394531 35.402344 C 234.929688 35.945312 235.5625 37.484375 234.929688 38.929688 Z M 57.359375 107.226562 C 57.902344 105.871094 59.527344 105.148438 60.886719 105.78125 L 81.601562 114.191406 C 82.957031 114.734375 83.683594 116.363281 83.046875 117.722656 C 82.597656 118.808594 81.601562 119.441406 80.515625 119.441406 C 80.152344 119.441406 79.792969 119.347656 79.519531 119.257812 L 58.804688 110.847656 C 57.449219 110.121094 56.726562 108.585938 57.359375 107.226562 Z M 306.484375 208.722656 C 306.03125 209.808594 305.035156 210.441406 303.953125 210.441406 C 303.589844 210.441406 303.226562 210.351562 302.957031 210.261719 L 282.242188 201.847656 C 280.882812 201.304688 280.160156 199.679688 280.792969 198.320312 C 281.335938 196.964844 282.964844 196.242188 284.320312 196.875 L 305.035156 205.285156 C 306.394531 205.828125 307.027344 207.367188 306.484375 208.722656 Z M 306.484375 208.722656 " fill-opacity="1" fill-rule="nonzero"/></g></svg>