<svg xmlns="http://www.w3.org/2000/svg" xmlns:xlink="http://www.w3.org/1999/xlink" width="500" zoomAndPan="magnify" viewBox="0 0 375 374.999991" height="500" preserveAspectRatio="xMidYMid meet" version="1.0"><defs><clipPath id="bea465f34b"><path d="M 86.746094 64.488281 L 274.246094 64.488281 L 274.246094 310.429688 L 86.746094 310.429688 Z M 86.746094 64.488281 " clip-rule="nonzero"/></clipPath></defs><rect x="-37.5" width="450"  y="-37.499999" height="449.999989" fill-opacity="1"/><rect x="-37.5" width="450" fill="#ffffff" y="-37.499999" height="449.999989" fill-opacity="1"/><path fill="#fff" d="M 181.921875 77.648438 C 136.601562 77.648438 99.964844 114.375 99.964844 159.605469 C 99.964844 192.167969 118.960938 220.300781 146.550781 233.511719 L 146.550781 261.550781 L 217.382812 261.550781 L 217.382812 233.511719 C 244.882812 220.300781 263.96875 192.167969 263.96875 159.605469 C 263.878906 114.375 227.152344 77.648438 181.921875 77.648438 Z M 181.921875 77.648438 " fill-opacity="1" fill-rule="nonzero"/><path fill="#d3d3d3" d="M 146.460938 261.644531 L 146.460938 290.679688 C 146.460938 300.179688 154.148438 307.867188 163.648438 307.867188 L 200.105469 307.867188 C 209.601562 307.867188 217.292969 300.179688 217.292969 290.679688 L 217.292969 261.644531 Z M 146.460938 261.644531 " fill-opacity="1" fill-rule="nonzero"/><g clip-path="url(#bea465f34b)"><path fill="#000000" d="M 181.921875 74.933594 C 135.242188 74.933594 97.25 112.925781 97.25 159.605469 C 97.25 191.445312 115.433594 220.9375 143.835938 235.230469 L 143.835938 291.3125 C 143.835938 301.714844 152.339844 310.21875 162.742188 310.21875 L 201.28125 310.21875 C 211.683594 310.21875 220.1875 301.714844 220.1875 291.3125 L 220.1875 235.320312 C 248.5 221.027344 266.773438 191.535156 266.773438 159.695312 C 266.589844 112.925781 228.597656 74.933594 181.921875 74.933594 Z M 164.191406 178.417969 C 151.707031 176.972656 145.648438 173.171875 145.648438 163.855469 C 145.648438 155.625 150.078125 151.824219 154.148438 151.824219 C 156.59375 151.824219 158.945312 153.089844 160.753906 155.261719 C 163.015625 158.066406 164.191406 162.226562 164.191406 167.292969 Z M 181.921875 184.570312 C 186.171875 184.570312 190.335938 184.480469 194.132812 184.300781 L 194.132812 258.929688 L 169.617188 258.929688 L 169.617188 184.300781 C 173.507812 184.480469 177.667969 184.570312 181.921875 184.570312 Z M 214.578125 264.355469 L 214.578125 273.222656 L 149.175781 273.222656 L 149.175781 264.355469 Z M 149.175781 278.648438 L 214.578125 278.648438 L 214.578125 287.515625 L 149.175781 287.515625 Z M 201.1875 304.703125 L 162.652344 304.703125 C 155.777344 304.703125 150.167969 299.546875 149.265625 292.941406 L 214.488281 292.941406 C 213.671875 299.546875 208.0625 304.703125 201.1875 304.703125 Z M 216.113281 231.066406 C 215.210938 231.519531 214.578125 232.515625 214.578125 233.511719 L 214.578125 258.839844 L 199.5625 258.839844 L 199.5625 183.847656 C 213.671875 182.308594 223.53125 177.695312 223.53125 163.765625 C 223.53125 152.367188 216.476562 146.304688 209.601562 146.304688 C 205.53125 146.304688 201.550781 148.296875 198.746094 151.824219 C 195.761719 155.625 194.132812 160.960938 194.132812 167.203125 L 194.132812 178.78125 C 190.515625 178.960938 186.355469 179.054688 181.921875 179.054688 C 177.488281 179.054688 173.328125 178.960938 169.710938 178.78125 L 169.710938 167.203125 C 169.710938 160.960938 168.082031 155.625 165.09375 151.824219 C 162.292969 148.296875 158.3125 146.304688 154.242188 146.304688 C 147.273438 146.304688 140.308594 152.277344 140.308594 163.765625 C 140.308594 177.695312 150.167969 182.308594 164.28125 183.847656 L 164.28125 258.929688 L 149.175781 258.929688 L 149.175781 233.601562 C 149.175781 232.515625 148.542969 231.609375 147.636719 231.15625 C 120.316406 218.042969 102.589844 190 102.589844 159.695312 C 102.589844 116.003906 138.136719 80.453125 181.832031 80.453125 C 225.523438 80.453125 261.074219 116.003906 261.074219 159.695312 C 261.164062 189.90625 243.523438 217.949219 216.113281 231.066406 Z M 199.5625 178.417969 L 199.5625 167.292969 C 199.5625 162.226562 200.738281 158.066406 203 155.261719 C 204.808594 153 207.160156 151.824219 209.601562 151.824219 C 213.671875 151.824219 218.105469 155.625 218.105469 163.855469 C 218.105469 173.171875 212.136719 176.972656 199.5625 178.417969 Z M 184.636719 2.925781 L 184.636719 50.238281 C 184.636719 51.777344 183.460938 52.953125 181.921875 52.953125 C 180.382812 52.953125 179.207031 51.777344 179.207031 50.238281 L 179.207031 2.925781 C 179.207031 1.390625 180.382812 0.214844 181.921875 0.214844 C 183.460938 0.214844 184.636719 1.390625 184.636719 2.925781 Z M 72.375 160.691406 L 24.339844 160.691406 C 22.800781 160.691406 21.625 159.511719 21.625 157.976562 C 21.625 156.4375 22.800781 155.261719 24.339844 155.261719 L 72.375 155.261719 C 73.914062 155.261719 75.089844 156.4375 75.089844 157.976562 C 75.089844 159.511719 73.914062 160.691406 72.375 160.691406 Z M 342.214844 157.976562 C 342.214844 159.511719 341.039062 160.691406 339.503906 160.691406 L 291.46875 160.691406 C 289.929688 160.691406 288.753906 159.511719 288.753906 157.976562 C 288.753906 156.4375 289.929688 155.261719 291.46875 155.261719 L 339.503906 155.261719 C 340.949219 155.261719 342.214844 156.4375 342.214844 157.976562 Z     " fill-opacity="1" fill-rule="nonzero"/></g></svg>