<?xml version="1.0" encoding="UTF-8"?>
<svg xmlns="http://www.w3.org/2000/svg" xmlns:xlink="http://www.w3.org/1999/xlink" width="500" zoomAndPan="magnify" viewBox="0 0 375 374.999991" height="500" preserveAspectRatio="xMidYMid meet" version="1.0" style="background-color:transparent;"><defs><g/><clipPath id="27fb027f26"><rect x="0" width="186" y="0" height="375"/></clipPath></defs><rect x="-37.5" width="450" fill="none" y="-37.499999" height="449.999989" fill-opacity="1"/><rect x="-37.5" width="450" fill="none" y="-37.499999" height="449.999989" fill-opacity="1"/><g transform="matrix(1, 0, 0, 1, 99, 0)"><g clip-path="url(#27fb027f26)"><g fill="#ffbd59" fill-opacity="1"><g transform="translate(11.817326, 271.141313)"><g><path d="M 100.609375 -175.09375 C 112.941406 -175.09375 124.164062 -173.160156 134.28125 -169.296875 C 144.394531 -165.429688 152.738281 -160.785156 159.3125 -155.359375 C 165.5625 -150.097656 168.6875 -143.6875 168.6875 -136.125 C 168.6875 -128.726562 166.546875 -122.929688 162.265625 -118.734375 C 157.992188 -114.546875 151.910156 -112.453125 144.015625 -112.453125 C 141.554688 -112.453125 139.460938 -112.738281 137.734375 -113.3125 C 136.003906 -113.894531 134.15625 -114.757812 132.1875 -115.90625 C 126.757812 -119.6875 121.617188 -122.519531 116.765625 -124.40625 C 111.921875 -126.300781 106.535156 -127.25 100.609375 -127.25 C 88.285156 -127.25 78.378906 -123.628906 70.890625 -116.390625 C 63.410156 -109.160156 59.671875 -99.132812 59.671875 -86.3125 C 59.671875 -73.488281 63.410156 -63.457031 70.890625 -56.21875 C 78.378906 -48.988281 88.285156 -45.375 100.609375 -45.375 C 106.535156 -45.375 111.921875 -46.359375 116.765625 -48.328125 C 121.617188 -50.304688 126.757812 -53.101562 132.1875 -56.71875 C 134.15625 -58.03125 136.003906 -58.929688 137.734375 -59.421875 C 139.460938 -59.921875 141.554688 -60.171875 144.015625 -60.171875 C 151.910156 -60.171875 157.992188 -58.070312 162.265625 -53.875 C 166.546875 -49.6875 168.6875 -43.894531 168.6875 -36.5 C 168.6875 -28.9375 165.5625 -22.523438 159.3125 -17.265625 C 152.738281 -11.835938 144.394531 -7.191406 134.28125 -3.328125 C 124.164062 0.535156 112.941406 2.46875 100.609375 2.46875 C 81.703125 2.46875 65.097656 -1.144531 50.796875 -8.375 C 36.492188 -15.613281 25.351562 -25.890625 17.375 -39.203125 C 9.40625 -52.523438 5.421875 -68.226562 5.421875 -86.3125 C 5.421875 -104.394531 9.40625 -120.09375 17.375 -133.40625 C 25.351562 -146.726562 36.492188 -157.003906 50.796875 -164.234375 C 65.097656 -171.472656 81.703125 -175.09375 100.609375 -175.09375 Z M 100.609375 -175.09375 "/></g></g></g><g fill="#000000" fill-opacity="1"><g transform="translate(0.91823, 260.242194)"><g><path d="M 100.617188 -179.71875 C 113.515625 -179.71875 125.289062 -177.683594 135.929688 -173.617188 C 146.511719 -169.574219 155.285156 -164.679688 162.253906 -158.929688 C 169.621094 -152.726562 173.304688 -145.125 173.304688 -136.128906 C 173.304688 -127.4375 170.707031 -120.539062 165.507812 -115.441406 C 160.332031 -110.367188 153.171875 -107.828125 144.019531 -107.828125 C 141.054688 -107.828125 138.46875 -108.195312 136.269531 -108.929688 C 134.242188 -109.605469 132.101562 -110.601562 129.851562 -111.914062 L 129.691406 -112.007812 L 129.539062 -112.113281 C 124.414062 -115.683594 119.597656 -118.347656 115.089844 -120.105469 C 110.78125 -121.785156 105.957031 -122.625 100.617188 -122.625 C 89.53125 -122.625 80.699219 -119.441406 74.113281 -113.074219 C 67.574219 -106.75 64.304688 -97.828125 64.304688 -86.3125 C 64.304688 -74.796875 67.574219 -65.875 74.113281 -59.550781 C 80.699219 -53.183594 89.53125 -50 100.617188 -50 C 105.933594 -50 110.734375 -50.875 115.027344 -52.617188 C 119.589844 -54.472656 124.453125 -57.125 129.617188 -60.566406 C 131.992188 -62.148438 134.273438 -63.253906 136.460938 -63.878906 C 138.601562 -64.492188 141.121094 -64.796875 144.019531 -64.796875 C 153.171875 -64.796875 160.332031 -62.261719 165.507812 -57.1875 C 170.707031 -52.085938 173.304688 -45.191406 173.304688 -36.5 C 173.304688 -27.5 169.632812 -19.910156 162.289062 -13.726562 C 155.296875 -7.957031 146.511719 -3.054688 135.929688 0.992188 C 125.289062 5.058594 113.515625 7.089844 100.617188 7.089844 C 80.976562 7.089844 63.675781 3.308594 48.714844 -4.257812 C 33.617188 -11.894531 21.851562 -22.753906 13.417969 -36.835938 C 5.007812 -50.882812 0.800781 -67.375 0.800781 -86.3125 C 0.800781 -105.25 5.007812 -121.742188 13.417969 -135.792969 C 21.851562 -149.875 33.617188 -160.730469 48.714844 -168.367188 C 63.675781 -175.933594 80.976562 -179.71875 100.617188 -179.71875 Z M 100.617188 -170.46875 C 82.445312 -170.46875 66.535156 -167.019531 52.886719 -160.117188 C 39.378906 -153.285156 28.867188 -143.59375 21.351562 -131.039062 C 13.816406 -118.453125 10.050781 -103.546875 10.050781 -86.3125 C 10.050781 -69.082031 13.816406 -54.171875 21.351562 -41.585938 C 28.867188 -29.035156 39.378906 -19.34375 52.886719 -12.511719 C 66.535156 -5.609375 82.445312 -2.15625 100.617188 -2.15625 C 112.378906 -2.15625 123.050781 -3.988281 132.628906 -7.648438 C 142.269531 -11.332031 150.167969 -15.714844 156.332031 -20.800781 C 161.480469 -25.136719 164.058594 -30.371094 164.058594 -36.5 C 164.058594 -42.601562 162.382812 -47.296875 159.03125 -50.582031 C 155.65625 -53.894531 150.652344 -55.546875 144.019531 -55.546875 C 141.984375 -55.546875 140.3125 -55.363281 139.003906 -54.988281 C 137.738281 -54.625 136.320312 -53.921875 134.746094 -52.871094 C 129.0625 -49.082031 123.652344 -46.144531 118.511719 -44.050781 C 113.105469 -41.851562 107.136719 -40.753906 100.617188 -40.753906 C 87.039062 -40.753906 76.0625 -44.800781 67.6875 -52.902344 C 59.265625 -61.046875 55.054688 -72.183594 55.054688 -86.3125 C 55.054688 -100.445312 59.265625 -111.582031 67.6875 -119.722656 C 76.0625 -127.824219 87.039062 -131.875 100.617188 -131.875 C 107.113281 -131.875 113.058594 -130.824219 118.449219 -128.722656 C 123.640625 -126.699219 129.101562 -123.691406 134.828125 -119.699219 L 132.183594 -115.90625 L 134.511719 -119.902344 C 136.210938 -118.910156 137.769531 -118.179688 139.195312 -117.703125 C 140.445312 -117.285156 142.054688 -117.078125 144.019531 -117.078125 C 150.652344 -117.078125 155.65625 -118.734375 159.03125 -122.042969 C 162.382812 -125.328125 164.058594 -130.023438 164.058594 -136.128906 C 164.058594 -142.257812 161.492188 -147.480469 156.367188 -151.796875 C 150.179688 -156.902344 142.269531 -161.296875 132.628906 -164.976562 C 123.050781 -168.640625 112.378906 -170.46875 100.617188 -170.46875 Z M 100.617188 -170.46875 "/></g></g></g></g></g></svg>