<?xml version="1.0" encoding="UTF-8"?>
<svg xmlns="http://www.w3.org/2000/svg" xmlns:xlink="http://www.w3.org/1999/xlink" width="500" zoomAndPan="magnify" viewBox="0 0 375 374.999991" height="500" preserveAspectRatio="xMidYMid meet" version="1.0" style="background-color:transparent;"><defs><g/><clipPath id="8f2374b295"><rect x="0" width="141" y="0" height="375"/></clipPath></defs><rect x="-37.5" width="450" fill="none" y="-37.499999" height="449.999989" fill-opacity="1"/><rect x="-37.5" width="450" fill="none" y="-37.499999" height="449.999989" fill-opacity="1"/><g transform="matrix(1, 0, 0, 1, 120, 0)"><g clip-path="url(#8f2374b295)"><g fill="#ffbd59" fill-opacity="1"><g transform="translate(18.685811, 271.141253)"><g><path d="M 26.640625 -172.625 L 93.21875 -172.625 C 99.957031 -172.625 105.671875 -170.28125 110.359375 -165.59375 C 115.046875 -160.90625 117.390625 -155.191406 117.390625 -148.453125 C 117.390625 -141.878906 115.046875 -136.207031 110.359375 -131.4375 C 105.671875 -126.675781 99.957031 -124.296875 93.21875 -124.296875 L 86.8125 -124.296875 L 86.8125 -48.328125 L 93.21875 -48.328125 C 99.957031 -48.328125 105.671875 -45.984375 110.359375 -41.296875 C 115.046875 -36.617188 117.390625 -30.910156 117.390625 -24.171875 C 117.390625 -17.585938 115.046875 -11.910156 110.359375 -7.140625 C 105.671875 -2.378906 99.957031 0 93.21875 0 L 26.640625 0 C 20.054688 0 14.378906 -2.378906 9.609375 -7.140625 C 4.847656 -11.910156 2.46875 -17.585938 2.46875 -24.171875 C 2.46875 -30.910156 4.847656 -36.617188 9.609375 -41.296875 C 14.378906 -45.984375 20.054688 -48.328125 26.640625 -48.328125 L 32.546875 -48.328125 L 32.546875 -124.296875 L 26.640625 -124.296875 C 20.054688 -124.296875 14.378906 -126.675781 9.609375 -131.4375 C 4.847656 -136.207031 2.46875 -141.878906 2.46875 -148.453125 C 2.46875 -155.191406 4.847656 -160.90625 9.609375 -165.59375 C 14.378906 -170.28125 20.054688 -172.625 26.640625 -172.625 Z M 26.640625 -172.625 "/></g></g></g><g fill="#000000" fill-opacity="1"><g transform="translate(7.786716, 260.242136)"><g><path d="M 26.632812 -177.25 L 93.21875 -177.25 C 101.234375 -177.25 108.039062 -174.457031 113.628906 -168.867188 C 119.214844 -163.28125 122.011719 -156.476562 122.011719 -148.460938 C 122.011719 -140.621094 119.226562 -133.871094 113.65625 -128.203125 C 108.0625 -122.511719 101.25 -119.667969 93.21875 -119.667969 L 86.808594 -119.667969 L 86.808594 -124.292969 L 91.429688 -124.292969 L 91.429688 -48.335938 L 86.808594 -48.335938 L 86.808594 -52.960938 L 93.21875 -52.960938 C 101.234375 -52.960938 108.039062 -50.164062 113.628906 -44.578125 C 119.214844 -38.988281 122.011719 -32.183594 122.011719 -24.167969 C 122.011719 -16.332031 119.226562 -9.578125 113.65625 -3.910156 C 108.0625 1.777344 101.25 4.625 93.21875 4.625 L 26.632812 4.625 C 18.78125 4.625 12.019531 1.789062 6.347656 -3.882812 C 0.675781 -9.550781 -2.15625 -16.316406 -2.15625 -24.167969 C -2.15625 -32.199219 0.6875 -39.011719 6.375 -44.605469 C 12.042969 -50.175781 18.796875 -52.960938 26.632812 -52.960938 L 32.550781 -52.960938 L 32.550781 -48.335938 L 27.929688 -48.335938 L 27.929688 -124.292969 L 32.550781 -124.292969 L 32.550781 -119.667969 L 26.632812 -119.667969 C 18.78125 -119.667969 12.019531 -122.503906 6.347656 -128.171875 C 0.675781 -133.84375 -2.15625 -140.605469 -2.15625 -148.460938 C -2.15625 -156.492188 0.6875 -163.304688 6.375 -168.898438 C 12.042969 -174.464844 18.796875 -177.25 26.632812 -177.25 Z M 26.632812 -168.003906 C 21.320312 -168.003906 16.726562 -166.101562 12.859375 -162.300781 C 9.011719 -158.519531 7.089844 -153.90625 7.089844 -148.460938 C 7.089844 -143.160156 9.023438 -138.578125 12.886719 -134.710938 C 16.753906 -130.847656 21.335938 -128.914062 26.632812 -128.914062 L 37.175781 -128.914062 L 37.175781 -43.710938 L 26.632812 -43.710938 C 21.320312 -43.710938 16.726562 -41.8125 12.859375 -38.007812 C 9.011719 -34.230469 7.089844 -29.617188 7.089844 -24.167969 C 7.089844 -18.867188 9.023438 -14.285156 12.886719 -10.421875 C 16.753906 -6.554688 21.335938 -4.625 26.632812 -4.625 L 93.21875 -4.625 C 98.667969 -4.625 103.28125 -6.546875 107.058594 -10.394531 C 110.863281 -14.261719 112.761719 -18.851562 112.761719 -24.167969 C 112.761719 -29.632812 110.871094 -34.253906 107.089844 -38.039062 C 103.304688 -41.820312 98.683594 -43.710938 93.21875 -43.710938 L 82.183594 -43.710938 L 82.183594 -128.914062 L 93.21875 -128.914062 C 98.667969 -128.914062 103.28125 -130.839844 107.058594 -134.683594 C 110.863281 -138.550781 112.761719 -143.144531 112.761719 -148.460938 C 112.761719 -153.921875 110.871094 -158.546875 107.089844 -162.328125 C 103.304688 -166.113281 98.683594 -168.003906 93.21875 -168.003906 Z M 26.632812 -168.003906 "/></g></g></g></g></g></svg>