<?xml version="1.0" encoding="UTF-8"?>
<svg xmlns="http://www.w3.org/2000/svg" xmlns:xlink="http://www.w3.org/1999/xlink" width="500" zoomAndPan="magnify" viewBox="0 0 375 374.999991" height="500" preserveAspectRatio="xMidYMid meet" version="1.0" style="background-color:transparent;"><defs><g/><clipPath id="34e3175a69"><rect x="0" width="163" y="0" height="375"/></clipPath></defs><rect x="-37.5" width="450" fill="none" y="-37.499999" height="449.999989" fill-opacity="1"/><rect x="-37.5" width="450" fill="none" y="-37.499999" height="449.999989" fill-opacity="1"/><g transform="matrix(1, 0, 0, 1, 112, 0)"><g clip-path="url(#34e3175a69)"><g fill="#ffbd59" fill-opacity="1"><g transform="translate(13.597937, 271.141289)"><g><path d="M 36.984375 -175.09375 C 46.191406 -175.09375 53.015625 -172.503906 57.453125 -167.328125 C 61.898438 -162.148438 64.125 -155.203125 64.125 -146.484375 L 64.125 -48.328125 L 118.859375 -48.328125 C 125.609375 -48.328125 131.320312 -45.984375 136 -41.296875 C 140.6875 -36.617188 143.03125 -30.910156 143.03125 -24.171875 C 143.03125 -17.585938 140.6875 -11.910156 136 -7.140625 C 131.320312 -2.378906 125.609375 0 118.859375 0 L 36.984375 0 C 27.941406 0 21.160156 -2.628906 16.640625 -7.890625 C 12.117188 -13.148438 9.859375 -20.054688 9.859375 -28.609375 L 9.859375 -146.484375 C 9.859375 -155.203125 12.117188 -162.148438 16.640625 -167.328125 C 21.160156 -172.503906 27.941406 -175.09375 36.984375 -175.09375 Z M 36.984375 -175.09375 "/></g></g></g><g fill="#000000" fill-opacity="1"><g transform="translate(2.698842, 260.242172)"><g><path d="M 36.992188 -179.71875 C 47.617188 -179.71875 55.609375 -176.589844 60.972656 -170.335938 C 66.152344 -164.289062 68.742188 -156.339844 68.742188 -146.488281 L 68.742188 -48.335938 L 64.117188 -48.335938 L 64.117188 -52.960938 L 118.867188 -52.960938 C 126.882812 -52.960938 133.6875 -50.164062 139.273438 -44.578125 C 144.863281 -38.988281 147.65625 -32.183594 147.65625 -24.167969 C 147.65625 -16.332031 144.875 -9.578125 139.304688 -3.910156 C 133.710938 1.777344 126.898438 4.625 118.867188 4.625 L 36.992188 4.625 C 26.535156 4.625 18.582031 1.457031 13.140625 -4.878906 C 7.875 -11.003906 5.242188 -18.914062 5.242188 -28.605469 L 5.242188 -146.488281 C 5.242188 -156.355469 7.882812 -164.316406 13.164062 -170.367188 C 18.605469 -176.601562 26.546875 -179.71875 36.992188 -179.71875 Z M 36.992188 -170.46875 C 29.351562 -170.46875 23.730469 -168.40625 20.128906 -164.285156 C 16.367188 -159.976562 14.488281 -154.042969 14.488281 -146.488281 L 14.488281 -28.605469 C 14.488281 -21.199219 16.375 -15.300781 20.152344 -10.90625 C 23.75 -6.71875 29.363281 -4.625 36.992188 -4.625 L 118.867188 -4.625 C 124.3125 -4.625 128.929688 -6.546875 132.707031 -10.394531 C 136.507812 -14.261719 138.410156 -18.851562 138.410156 -24.167969 C 138.410156 -29.632812 136.519531 -34.253906 132.734375 -38.039062 C 128.953125 -41.820312 124.328125 -43.710938 118.867188 -43.710938 L 59.496094 -43.710938 L 59.496094 -146.488281 C 59.496094 -154.058594 57.644531 -160.003906 53.949219 -164.316406 C 50.433594 -168.417969 44.78125 -170.46875 36.992188 -170.46875 Z M 36.992188 -170.46875 "/></g></g></g></g></g></svg>