<?xml version="1.0" encoding="UTF-8"?>
<svg xmlns="http://www.w3.org/2000/svg" xmlns:xlink="http://www.w3.org/1999/xlink" width="500" zoomAndPan="magnify" viewBox="0 0 375 374.999991" height="500" preserveAspectRatio="xMidYMid meet" version="1.0" style="background-color:transparent;"><defs><g/><clipPath id="472c375e68"><rect x="0" width="181" y="0" height="375"/></clipPath></defs><rect x="-37.5" width="450" fill="none" y="-37.499999" height="449.999989" fill-opacity="1"/><rect x="-37.5" width="450" fill="none" y="-37.499999" height="449.999989" fill-opacity="1"/><g transform="matrix(1, 0, 0, 1, 104, 0)"><g clip-path="url(#472c375e68)"><g fill="#ffbd59" fill-opacity="1"><g transform="translate(12.473606, 271.141313)"><g><path d="M 127.984375 -81.140625 C 132.097656 -78.015625 135.632812 -73.984375 138.59375 -69.046875 L 157.34375 -38.96875 C 160.300781 -34.53125 161.78125 -29.597656 161.78125 -24.171875 C 161.78125 -16.765625 159.109375 -10.472656 153.765625 -5.296875 C 148.421875 -0.117188 142.050781 2.46875 134.65625 2.46875 C 130.050781 2.46875 125.648438 1.234375 121.453125 -1.234375 C 117.265625 -3.703125 113.9375 -6.90625 111.46875 -10.84375 L 83.84375 -55.234375 C 81.707031 -59.015625 78.992188 -61.601562 75.703125 -63 C 72.421875 -64.40625 68.5625 -65.109375 64.125 -65.109375 L 64.125 -26.140625 C 64.125 -17.585938 61.898438 -10.679688 57.453125 -5.421875 C 53.015625 -0.160156 46.191406 2.46875 36.984375 2.46875 C 27.941406 2.46875 21.160156 -0.160156 16.640625 -5.421875 C 12.117188 -10.679688 9.859375 -17.585938 9.859375 -26.140625 L 9.859375 -144.015625 C 9.859375 -152.734375 12.117188 -159.679688 16.640625 -164.859375 C 21.160156 -170.035156 27.941406 -172.625 36.984375 -172.625 L 103.578125 -172.625 C 120.179688 -172.625 132.960938 -168.757812 141.921875 -161.03125 C 150.878906 -153.3125 155.359375 -141.554688 155.359375 -125.765625 C 155.359375 -114.097656 152.929688 -104.519531 148.078125 -97.03125 C 143.234375 -89.550781 136.535156 -84.253906 127.984375 -81.140625 Z M 64.125 -107.515625 L 88.78125 -107.515625 C 92.5625 -107.515625 95.5625 -108.5 97.78125 -110.46875 C 100 -112.445312 101.109375 -115.242188 101.109375 -118.859375 C 101.109375 -122.640625 100 -125.554688 97.78125 -127.609375 C 95.5625 -129.671875 92.5625 -130.703125 88.78125 -130.703125 L 64.125 -130.703125 Z M 64.125 -107.515625 "/></g></g></g><g fill="#000000" fill-opacity="1"><g transform="translate(1.574511, 260.242194)"><g><path d="M 130.789062 -84.816406 C 135.371094 -81.332031 139.296875 -76.871094 142.558594 -71.429688 L 161.261719 -41.410156 L 157.335938 -38.964844 L 161.183594 -41.53125 C 164.660156 -36.3125 166.398438 -30.527344 166.398438 -24.167969 C 166.398438 -15.464844 163.261719 -8.070312 156.980469 -1.980469 C 150.738281 4.066406 143.296875 7.089844 134.648438 7.089844 C 129.207031 7.089844 124.027344 5.644531 119.109375 2.753906 C 114.269531 -0.0976562 110.414062 -3.8125 107.546875 -8.398438 L 79.871094 -52.878906 L 79.820312 -52.964844 C 78.199219 -55.835938 76.226562 -57.765625 73.902344 -58.753906 C 71.191406 -59.90625 67.929688 -60.480469 64.117188 -60.480469 L 64.117188 -65.105469 L 68.742188 -65.105469 L 68.742188 -26.140625 C 68.742188 -16.464844 66.160156 -8.566406 60.996094 -2.445312 C 55.632812 3.914062 47.628906 7.089844 36.992188 7.089844 C 26.535156 7.089844 18.582031 3.921875 13.140625 -2.410156 C 7.875 -8.539062 5.242188 -16.449219 5.242188 -26.140625 L 5.242188 -144.019531 C 5.242188 -153.890625 7.882812 -161.851562 13.164062 -167.898438 C 18.605469 -174.132812 26.546875 -177.25 36.992188 -177.25 L 103.578125 -177.25 C 121.328125 -177.25 135.117188 -173.011719 144.945312 -164.539062 C 154.972656 -155.890625 159.988281 -142.964844 159.988281 -125.769531 C 159.988281 -113.1875 157.316406 -102.769531 151.96875 -94.527344 C 146.558594 -86.179688 139.09375 -80.269531 129.578125 -76.792969 L 127.992188 -81.132812 Z M 125.191406 -77.453125 L 118.457031 -82.574219 L 126.402344 -85.476562 C 133.984375 -88.246094 139.921875 -92.941406 144.210938 -99.554688 C 148.5625 -106.273438 150.738281 -115.011719 150.738281 -125.769531 C 150.738281 -140.140625 146.792969 -150.730469 138.902344 -157.535156 C 130.8125 -164.511719 119.035156 -168.003906 103.578125 -168.003906 L 36.992188 -168.003906 C 29.351562 -168.003906 23.730469 -165.941406 20.128906 -161.816406 C 16.367188 -157.511719 14.488281 -151.578125 14.488281 -144.019531 L 14.488281 -26.140625 C 14.488281 -18.734375 16.375 -12.832031 20.152344 -8.4375 C 23.75 -4.25 29.363281 -2.15625 36.992188 -2.15625 C 44.765625 -2.15625 50.410156 -4.242188 53.925781 -8.40625 C 57.636719 -12.808594 59.496094 -18.71875 59.496094 -26.140625 L 59.496094 -69.730469 L 64.117188 -69.730469 C 69.183594 -69.730469 73.652344 -68.90625 77.519531 -67.265625 C 81.769531 -65.457031 85.222656 -62.207031 87.871094 -57.515625 L 83.847656 -55.242188 L 87.773438 -57.683594 L 115.390625 -13.300781 C 117.453125 -9.996094 120.257812 -7.300781 123.800781 -5.21875 C 127.269531 -3.179688 130.886719 -2.15625 134.648438 -2.15625 C 140.796875 -2.15625 146.097656 -4.3125 150.542969 -8.621094 C 154.949219 -12.894531 157.152344 -18.074219 157.152344 -24.167969 C 157.152344 -28.660156 155.929688 -32.738281 153.488281 -36.398438 L 153.449219 -36.457031 L 134.628906 -66.671875 C 131.976562 -71.09375 128.832031 -74.6875 125.191406 -77.453125 Z M 64.117188 -112.144531 L 88.78125 -112.144531 C 91.390625 -112.144531 93.367188 -112.742188 94.707031 -113.9375 C 95.894531 -114.992188 96.484375 -116.632812 96.484375 -118.867188 C 96.484375 -121.300781 95.871094 -123.085938 94.640625 -124.226562 C 93.304688 -125.460938 91.351562 -126.078125 88.78125 -126.078125 L 64.117188 -126.078125 L 64.117188 -130.703125 L 68.742188 -130.703125 L 68.742188 -107.523438 L 64.117188 -107.523438 Z M 59.496094 -102.898438 L 59.496094 -135.328125 L 88.78125 -135.328125 C 93.769531 -135.328125 97.816406 -133.890625 100.921875 -131.011719 C 104.128906 -128.042969 105.734375 -123.996094 105.734375 -118.867188 C 105.734375 -113.863281 104.105469 -109.917969 100.851562 -107.023438 C 97.757812 -104.273438 93.734375 -102.898438 88.78125 -102.898438 Z M 59.496094 -102.898438 "/></g></g></g></g></g></svg>