<?xml version="1.0" encoding="UTF-8"?>
<svg xmlns="http://www.w3.org/2000/svg" xmlns:xlink="http://www.w3.org/1999/xlink" width="500" zoomAndPan="magnify" viewBox="0 0 375 374.999991" height="500" preserveAspectRatio="xMidYMid meet" version="1.0" style="background-color:transparent;"><defs><g/><clipPath id="d865871f3d"><rect x="0" width="234" y="0" height="375"/></clipPath></defs><rect x="-37.5" width="450" fill="none" y="-37.499999" height="449.999989" fill-opacity="1"/><rect x="-37.5" width="450" fill="none" y="-37.499999" height="449.999989" fill-opacity="1"/><g transform="matrix(1, 0, 0, 1, 75, 0)"><g clip-path="url(#d865871f3d)"><g fill="#ffbd59" fill-opacity="1"><g transform="translate(13.233555, 271.141313)"><g><path d="M 73.984375 -175.09375 C 82.035156 -175.09375 90.003906 -174.144531 97.890625 -172.25 C 105.785156 -170.363281 112.898438 -167.734375 119.234375 -164.359375 C 125.566406 -160.992188 130.539062 -157.171875 134.15625 -152.890625 C 135.96875 -150.921875 137.242188 -148.742188 137.984375 -146.359375 C 138.722656 -143.972656 139.09375 -141.550781 139.09375 -139.09375 C 139.09375 -133.007812 137.363281 -128.035156 133.90625 -124.171875 C 130.457031 -120.304688 125.28125 -118.375 118.375 -118.375 C 116.394531 -118.375 114.335938 -118.660156 112.203125 -119.234375 C 110.066406 -119.804688 108.015625 -120.832031 106.046875 -122.3125 C 101.109375 -126.257812 96.582031 -129.054688 92.46875 -130.703125 C 88.363281 -132.347656 83.847656 -133.171875 78.921875 -133.171875 C 75.296875 -133.171875 72.332031 -132.265625 70.03125 -130.453125 C 67.726562 -128.648438 66.578125 -126.269531 66.578125 -123.3125 C 66.578125 -120.84375 67.398438 -118.5 69.046875 -116.28125 C 70.691406 -114.0625 73.984375 -112.289062 78.921875 -110.96875 L 106.046875 -104.0625 C 119.691406 -100.445312 129.675781 -94.648438 136 -86.671875 C 142.332031 -78.703125 145.5 -67.070312 145.5 -51.78125 C 145.5 -41.59375 143.113281 -32.390625 138.34375 -24.171875 C 133.582031 -15.953125 126.269531 -9.457031 116.40625 -4.6875 C 106.539062 0.0820312 94.046875 2.46875 78.921875 2.46875 C 65.109375 2.46875 52.40625 0.785156 40.8125 -2.578125 C 29.21875 -5.953125 19.722656 -11.34375 12.328125 -18.75 C 10.191406 -21.039062 8.585938 -23.460938 7.515625 -26.015625 C 6.453125 -28.566406 5.921875 -31.070312 5.921875 -33.53125 C 5.921875 -39.78125 7.929688 -44.796875 11.953125 -48.578125 C 15.984375 -52.359375 21.039062 -54.25 27.125 -54.25 C 28.9375 -54.25 30.785156 -54.082031 32.671875 -53.75 C 34.566406 -53.425781 36.5 -52.609375 38.46875 -51.296875 C 45.375 -46.859375 51.953125 -43.773438 58.203125 -42.046875 C 64.453125 -40.316406 71.023438 -39.453125 77.921875 -39.453125 C 82.859375 -39.453125 86.3125 -40.476562 88.28125 -42.53125 C 90.257812 -44.59375 91.25 -46.859375 91.25 -49.328125 C 91.25 -51.296875 90.546875 -53.472656 89.140625 -55.859375 C 87.742188 -58.242188 84.335938 -60.175781 78.921875 -61.65625 L 51.78125 -68.5625 C 38.957031 -72.007812 29.175781 -77.882812 22.4375 -86.1875 C 15.695312 -94.488281 12.328125 -106.039062 12.328125 -120.84375 C 12.328125 -136.945312 17.378906 -150.015625 27.484375 -160.046875 C 37.597656 -170.078125 53.097656 -175.09375 73.984375 -175.09375 Z M 73.984375 -175.09375 "/></g></g></g><g fill="#ffbd59" fill-opacity="1"><g transform="translate(171.81547, 271.141313)"><g/></g></g><g fill="#000000" fill-opacity="1"><g transform="translate(2.334459, 260.242194)"><g><path d="M 73.984375 -179.71875 C 82.402344 -179.71875 90.734375 -178.730469 98.980469 -176.753906 C 107.257812 -174.769531 114.730469 -172.003906 121.410156 -168.445312 C 128.261719 -164.796875 133.6875 -160.613281 137.6875 -155.886719 L 134.15625 -152.898438 L 137.566406 -156.023438 C 139.839844 -153.539062 141.449219 -150.777344 142.394531 -147.734375 C 143.273438 -144.902344 143.710938 -142.019531 143.710938 -139.089844 C 143.710938 -131.828125 141.59375 -125.828125 137.355469 -121.085938 C 132.984375 -116.195312 126.65625 -113.75 118.371094 -113.75 C 115.992188 -113.75 113.535156 -114.089844 111.003906 -114.769531 C 108.292969 -115.5 105.714844 -116.785156 103.269531 -118.621094 L 103.152344 -118.707031 C 98.578125 -122.367188 94.449219 -124.933594 90.761719 -126.410156 C 87.203125 -127.832031 83.253906 -128.546875 78.914062 -128.546875 C 76.363281 -128.546875 74.359375 -127.96875 72.894531 -126.820312 C 71.769531 -125.9375 71.207031 -124.765625 71.207031 -123.304688 C 71.207031 -121.855469 71.726562 -120.429688 72.765625 -119.027344 C 73.769531 -117.675781 76.214844 -116.480469 80.105469 -115.441406 L 107.183594 -108.550781 C 121.847656 -104.664062 132.660156 -98.332031 139.628906 -89.558594 C 146.625 -80.742188 150.125 -68.152344 150.125 -51.789062 C 150.125 -40.765625 147.53125 -30.785156 142.347656 -21.847656 C 137.105469 -12.808594 129.128906 -5.703125 118.414062 -0.523438 C 107.914062 4.550781 94.746094 7.089844 78.914062 7.089844 C 64.664062 7.089844 51.535156 5.34375 39.523438 1.851562 C 27.171875 -1.742188 17.019531 -7.515625 9.0625 -15.472656 L 9 -15.53125 L 8.941406 -15.597656 C 6.433594 -18.296875 4.539062 -21.175781 3.257812 -24.230469 C 1.949219 -27.347656 1.292969 -30.453125 1.292969 -33.539062 C 1.292969 -41.121094 3.792969 -47.257812 8.796875 -51.953125 C 13.714844 -56.570312 19.824219 -58.878906 27.128906 -58.878906 C 29.203125 -58.878906 31.316406 -58.691406 33.46875 -58.316406 C 36 -57.875 38.523438 -56.816406 41.035156 -55.140625 C 47.503906 -50.984375 53.636719 -48.105469 59.429688 -46.503906 C 65.277344 -44.890625 71.441406 -44.082031 77.929688 -44.082031 C 81.546875 -44.082031 83.886719 -44.636719 84.949219 -45.742188 C 86.066406 -46.902344 86.621094 -48.097656 86.621094 -49.320312 C 86.621094 -50.457031 86.132812 -51.855469 85.160156 -53.519531 C 84.398438 -54.816406 81.910156 -56.042969 77.699219 -57.191406 L 50.648438 -64.078125 C 36.820312 -67.800781 26.222656 -74.199219 18.851562 -83.277344 C 11.421875 -92.425781 7.707031 -104.949219 7.707031 -120.839844 C 7.707031 -138.234375 13.21875 -152.398438 24.242188 -163.332031 C 35.253906 -174.253906 51.832031 -179.71875 73.984375 -179.71875 Z M 73.984375 -170.46875 C 54.371094 -170.46875 39.964844 -165.902344 30.753906 -156.765625 C 21.554688 -147.640625 16.953125 -135.667969 16.953125 -120.839844 C 16.953125 -107.136719 19.980469 -96.558594 26.03125 -89.105469 C 32.144531 -81.578125 41.109375 -76.222656 52.929688 -73.039062 L 80.132812 -66.113281 C 86.769531 -64.304688 91.105469 -61.664062 93.140625 -58.195312 C 94.960938 -55.089844 95.871094 -52.132812 95.871094 -49.320312 C 95.871094 -45.617188 94.453125 -42.289062 91.621094 -39.335938 C 88.738281 -36.335938 84.175781 -34.832031 77.929688 -34.832031 C 70.605469 -34.832031 63.617188 -35.753906 56.96875 -37.589844 C 50.269531 -39.441406 43.25 -42.726562 35.90625 -47.449219 C 34.472656 -48.402344 33.132812 -48.988281 31.882812 -49.207031 C 30.253906 -49.488281 28.667969 -49.628906 27.128906 -49.628906 C 22.265625 -49.628906 18.265625 -48.15625 15.125 -45.210938 C 12.070312 -42.34375 10.542969 -38.453125 10.542969 -33.539062 C 10.542969 -31.691406 10.957031 -29.78125 11.785156 -27.804688 C 12.644531 -25.761719 13.953125 -23.789062 15.71875 -21.890625 L 12.332031 -18.742188 L 15.601562 -22.011719 C 22.4375 -15.171875 31.273438 -10.179688 42.105469 -7.03125 C 53.273438 -3.78125 65.542969 -2.15625 78.914062 -2.15625 C 93.335938 -2.15625 105.160156 -4.386719 114.386719 -8.847656 C 123.402344 -13.207031 130.054688 -19.085938 134.347656 -26.488281 C 138.699219 -33.992188 140.875 -42.425781 140.875 -51.789062 C 140.875 -66.003906 138.046875 -76.675781 132.382812 -83.808594 C 126.691406 -90.980469 117.527344 -96.242188 104.902344 -99.589844 L 77.722656 -106.507812 C 71.75 -108.097656 67.621094 -110.4375 65.335938 -113.523438 C 63.085938 -116.5625 61.960938 -119.820312 61.960938 -123.304688 C 61.960938 -127.761719 63.699219 -131.359375 67.179688 -134.09375 C 70.320312 -136.558594 74.230469 -137.792969 78.914062 -137.792969 C 84.441406 -137.792969 89.535156 -136.859375 94.195312 -134.996094 C 98.730469 -133.183594 103.640625 -130.160156 108.929688 -125.929688 L 106.042969 -122.320312 L 108.816406 -126.019531 C 110.316406 -124.894531 111.84375 -124.121094 113.410156 -123.699219 C 115.152344 -123.230469 116.808594 -122.996094 118.371094 -122.996094 C 123.898438 -122.996094 127.929688 -124.414062 130.460938 -127.25 C 133.128906 -130.234375 134.464844 -134.183594 134.464844 -139.089844 C 134.464844 -141.085938 134.164062 -143.054688 133.5625 -144.992188 C 133.027344 -146.714844 132.089844 -148.308594 130.746094 -149.773438 L 130.683594 -149.839844 L 130.625 -149.910156 C 127.390625 -153.734375 122.871094 -157.191406 117.0625 -160.285156 C 111.082031 -163.46875 104.335938 -165.960938 96.828125 -167.761719 C 89.289062 -169.566406 81.675781 -170.46875 73.984375 -170.46875 Z M 73.984375 -170.46875 "/></g></g></g><g fill="#000000" fill-opacity="1"><g transform="translate(160.916374, 260.242194)"><g/></g></g></g></g></svg>