<?xml version="1.0" encoding="UTF-8"?>
<svg xmlns="http://www.w3.org/2000/svg" xmlns:xlink="http://www.w3.org/1999/xlink" width="500" zoomAndPan="magnify" viewBox="0 0 375 374.999991" height="500" preserveAspectRatio="xMidYMid meet" version="1.0" style="background-color:transparent;"><defs><g/><clipPath id="d652fad400"><rect x="0" width="171" y="0" height="375"/></clipPath></defs><rect x="-37.5" width="450" fill="none" y="-37.499999" height="449.999989" fill-opacity="1"/><rect x="-37.5" width="450" fill="none" y="-37.499999" height="449.999989" fill-opacity="1"/><g transform="matrix(1, 0, 0, 1, 104, 0)"><g clip-path="url(#d652fad400)"><g fill="#ffbd59" fill-opacity="1"><g transform="translate(19.16204, 271.141253)"><g><path d="M 26.640625 -172.625 L 123.796875 -172.625 C 130.535156 -172.625 136.25 -170.28125 140.9375 -165.59375 C 145.625 -160.90625 147.96875 -155.191406 147.96875 -148.453125 C 147.96875 -141.878906 145.625 -136.207031 140.9375 -131.4375 C 136.25 -126.675781 130.535156 -124.296875 123.796875 -124.296875 L 102.59375 -124.296875 L 102.59375 -26.140625 C 102.59375 -17.585938 100.289062 -10.679688 95.6875 -5.421875 C 91.082031 -0.160156 84.175781 2.46875 74.96875 2.46875 C 65.925781 2.46875 59.222656 -0.160156 54.859375 -5.421875 C 50.503906 -10.679688 48.328125 -17.585938 48.328125 -26.140625 L 48.328125 -124.296875 L 26.640625 -124.296875 C 20.054688 -124.296875 14.378906 -126.675781 9.609375 -131.4375 C 4.847656 -136.207031 2.46875 -141.878906 2.46875 -148.453125 C 2.46875 -155.191406 4.847656 -160.90625 9.609375 -165.59375 C 14.378906 -170.28125 20.054688 -172.625 26.640625 -172.625 Z M 26.640625 -172.625 "/></g></g></g><g fill="#000000" fill-opacity="1"><g transform="translate(8.262945, 260.242136)"><g><path d="M 26.632812 -177.25 L 123.796875 -177.25 C 131.816406 -177.25 138.617188 -174.457031 144.207031 -168.867188 C 149.796875 -163.28125 152.589844 -156.476562 152.589844 -148.460938 C 152.589844 -140.621094 149.804688 -133.871094 144.234375 -128.203125 C 138.644531 -122.511719 131.832031 -119.667969 123.796875 -119.667969 L 102.589844 -119.667969 L 102.589844 -124.292969 L 107.214844 -124.292969 L 107.214844 -26.140625 C 107.214844 -16.433594 104.53125 -8.511719 99.164062 -2.378906 C 93.640625 3.933594 85.574219 7.089844 74.96875 7.089844 C 64.476562 7.089844 56.589844 3.902344 51.308594 -2.476562 C 46.242188 -8.59375 43.710938 -16.480469 43.710938 -26.140625 L 43.710938 -124.292969 L 48.335938 -124.292969 L 48.335938 -119.667969 L 26.632812 -119.667969 C 18.78125 -119.667969 12.019531 -122.503906 6.347656 -128.171875 C 0.675781 -133.84375 -2.15625 -140.605469 -2.15625 -148.460938 C -2.15625 -156.492188 0.6875 -163.304688 6.375 -168.898438 C 12.042969 -174.464844 18.796875 -177.25 26.632812 -177.25 Z M 26.632812 -168.003906 C 21.320312 -168.003906 16.726562 -166.101562 12.859375 -162.300781 C 9.011719 -158.519531 7.089844 -153.90625 7.089844 -148.460938 C 7.089844 -143.160156 9.023438 -138.578125 12.886719 -134.710938 C 16.753906 -130.847656 21.335938 -128.914062 26.632812 -128.914062 L 52.960938 -128.914062 L 52.960938 -26.140625 C 52.960938 -18.703125 54.785156 -12.78125 58.433594 -8.375 C 61.863281 -4.230469 67.375 -2.15625 74.96875 -2.15625 C 82.777344 -2.15625 88.523438 -4.261719 92.203125 -8.46875 C 96.046875 -12.859375 97.964844 -18.75 97.964844 -26.140625 L 97.964844 -128.914062 L 123.796875 -128.914062 C 129.246094 -128.914062 133.859375 -130.839844 137.640625 -134.683594 C 141.441406 -138.550781 143.34375 -143.144531 143.34375 -148.460938 C 143.34375 -153.921875 141.449219 -158.546875 137.667969 -162.328125 C 133.886719 -166.113281 129.261719 -168.003906 123.796875 -168.003906 Z M 26.632812 -168.003906 "/></g></g></g></g></g></svg>