<?xml version="1.0" encoding="UTF-8"?>
<svg xmlns="http://www.w3.org/2000/svg" xmlns:xlink="http://www.w3.org/1999/xlink" width="500" zoomAndPan="magnify" viewBox="0 0 375 374.999991" height="500" preserveAspectRatio="xMidYMid meet" version="1.0" style="background-color:transparent;"><defs><g/><clipPath id="a083d58a21"><rect x="0" width="196" y="0" height="375"/></clipPath></defs><rect x="-37.5" width="450" fill="none" y="-37.499999" height="449.999989" fill-opacity="1"/><rect x="-37.5" width="450" fill="none" y="-37.499999" height="449.999989" fill-opacity="1"/><g transform="matrix(1, 0, 0, 1, 94, 0)"><g clip-path="url(#a083d58a21)"><g fill="#ffbd59" fill-opacity="1"><g transform="translate(16.817326, 271.141313)"><g><path d="M 29.59375 -175.09375 C 35.34375 -175.09375 40.351562 -173.816406 44.625 -171.265625 C 48.90625 -168.722656 52.113281 -164.738281 54.25 -159.3125 L 87.296875 -75.953125 L 120.84375 -159.3125 C 123.144531 -164.738281 126.429688 -168.722656 130.703125 -171.265625 C 134.972656 -173.816406 139.90625 -175.09375 145.5 -175.09375 C 150.425781 -175.09375 154.945312 -173.859375 159.0625 -171.390625 C 163.175781 -168.921875 166.460938 -165.628906 168.921875 -161.515625 C 171.390625 -157.410156 172.625 -152.894531 172.625 -147.96875 C 172.625 -144.019531 171.640625 -140.070312 169.671875 -136.125 L 111.953125 -13.3125 C 109.816406 -8.550781 106.613281 -4.726562 102.34375 -1.84375 C 98.070312 1.03125 93.304688 2.46875 88.046875 2.46875 C 87.878906 2.46875 87.710938 2.46875 87.546875 2.46875 C 87.378906 2.46875 87.132812 2.46875 86.8125 2.46875 C 81.707031 2.132812 77.054688 0.570312 72.859375 -2.21875 C 68.671875 -5.007812 65.425781 -8.707031 63.125 -13.3125 L 5.421875 -136.125 C 3.453125 -140.070312 2.46875 -144.019531 2.46875 -147.96875 C 2.46875 -152.894531 3.695312 -157.410156 6.15625 -161.515625 C 8.625 -165.628906 11.910156 -168.921875 16.015625 -171.390625 C 20.128906 -173.859375 24.65625 -175.09375 29.59375 -175.09375 Z M 29.59375 -175.09375 "/></g></g></g><g fill="#000000" fill-opacity="1"><g transform="translate(5.91823, 260.242194)"><g><path d="M 29.59375 -179.71875 C 36.195312 -179.71875 42 -178.226562 47.003906 -175.242188 C 52.183594 -172.15625 56.035156 -167.410156 58.554688 -161.003906 L 91.597656 -77.660156 L 87.300781 -75.957031 L 83.011719 -77.683594 L 116.550781 -161.035156 C 119.265625 -167.441406 123.195312 -172.179688 128.335938 -175.242188 C 133.339844 -178.226562 139.0625 -179.71875 145.5 -179.71875 C 151.285156 -179.71875 156.601562 -178.265625 161.441406 -175.359375 C 166.214844 -172.496094 170.03125 -168.679688 172.894531 -163.910156 C 175.796875 -159.066406 177.25 -153.753906 177.25 -147.964844 C 177.25 -143.292969 176.101562 -138.65625 173.804688 -134.0625 L 169.667969 -136.128906 L 173.851562 -134.164062 L 116.144531 -11.351562 C 113.671875 -5.828125 109.929688 -1.382812 104.925781 1.988281 C 99.871094 5.390625 94.242188 7.089844 88.039062 7.089844 L 86.65625 7.089844 L 86.507812 7.082031 C 80.589844 6.699219 75.1875 4.882812 70.308594 1.628906 C 65.433594 -1.621094 61.664062 -5.914062 58.996094 -11.25 L 58.972656 -11.300781 L 1.242188 -134.164062 L 5.425781 -136.128906 L 1.289062 -134.0625 C -1.007812 -138.65625 -2.15625 -143.292969 -2.15625 -147.964844 C -2.15625 -153.753906 -0.707031 -159.066406 2.199219 -163.910156 C 5.0625 -168.679688 8.878906 -172.496094 13.652344 -175.359375 C 18.492188 -178.265625 23.808594 -179.71875 29.59375 -179.71875 Z M 29.59375 -170.46875 C 25.515625 -170.46875 21.785156 -169.457031 18.410156 -167.429688 C 14.960938 -165.359375 12.199219 -162.601562 10.128906 -159.152344 C 8.105469 -155.773438 7.089844 -152.042969 7.089844 -147.964844 C 7.089844 -144.746094 7.914062 -141.492188 9.5625 -138.195312 L 9.585938 -138.144531 L 67.316406 -15.285156 L 63.132812 -13.316406 L 67.269531 -15.386719 C 69.203125 -11.515625 71.925781 -8.40625 75.4375 -6.066406 C 78.941406 -3.730469 82.832031 -2.425781 87.105469 -2.148438 L 86.808594 2.464844 L 86.808594 -2.15625 L 88.039062 -2.15625 C 92.359375 -2.15625 96.265625 -3.332031 99.761719 -5.6875 C 103.304688 -8.070312 105.976562 -11.269531 107.777344 -15.285156 L 165.507812 -138.144531 L 165.53125 -138.195312 C 167.179688 -141.492188 168.003906 -144.746094 168.003906 -147.964844 C 168.003906 -152.042969 166.988281 -155.773438 164.960938 -159.152344 C 162.894531 -162.601562 160.132812 -165.359375 156.683594 -167.429688 C 153.304688 -169.457031 149.578125 -170.46875 145.5 -170.46875 C 140.757812 -170.46875 136.617188 -169.414062 133.070312 -167.296875 C 129.664062 -165.265625 127.015625 -162.027344 125.128906 -157.582031 L 87.269531 -63.488281 L 49.953125 -157.613281 C 48.199219 -162.0625 45.640625 -165.289062 42.269531 -167.296875 C 38.722656 -169.414062 34.5 -170.46875 29.59375 -170.46875 Z M 29.59375 -170.46875 "/></g></g></g></g></g></svg>