<?xml version="1.0" encoding="UTF-8"?>
<svg xmlns="http://www.w3.org/2000/svg" xmlns:xlink="http://www.w3.org/1999/xlink" width="500" zoomAndPan="magnify" viewBox="0 0 375 374.999991" height="500" preserveAspectRatio="xMidYMid meet" version="1.0" style="background-color:transparent;"><defs><g/><clipPath id="0f1e0dcfab"><rect x="0" width="183" y="0" height="375"/></clipPath></defs><rect x="-37.5" width="450" fill="none" y="-37.499999" height="449.999989" fill-opacity="1"/><rect x="-37.5" width="450" fill="none" y="-37.499999" height="449.999989" fill-opacity="1"/><g transform="matrix(1, 0, 0, 1, 99, 0)"><g clip-path="url(#0f1e0dcfab)"><g fill="#ffbd59" fill-opacity="1"><g transform="translate(17.969046, 271.141253)"><g><path d="M 29.59375 -175.09375 C 38.144531 -175.09375 45.210938 -171.804688 50.796875 -165.234375 L 81.375 -128.234375 L 111.953125 -165.234375 C 114.421875 -168.515625 117.546875 -170.976562 121.328125 -172.625 C 125.109375 -174.269531 129.054688 -175.09375 133.171875 -175.09375 C 138.097656 -175.09375 142.613281 -173.859375 146.71875 -171.390625 C 150.832031 -168.921875 154.125 -165.628906 156.59375 -161.515625 C 159.0625 -157.410156 160.296875 -152.894531 160.296875 -147.96875 C 160.296875 -144.84375 159.71875 -141.800781 158.5625 -138.84375 C 157.414062 -135.882812 155.859375 -133.171875 153.890625 -130.703125 L 116.40625 -86.3125 L 153.890625 -41.921875 C 158.160156 -37.148438 160.296875 -31.394531 160.296875 -24.65625 C 160.296875 -19.726562 159.0625 -15.207031 156.59375 -11.09375 C 154.125 -6.988281 150.832031 -3.703125 146.71875 -1.234375 C 142.613281 1.234375 138.097656 2.46875 133.171875 2.46875 C 129.054688 2.46875 125.109375 1.601562 121.328125 -0.125 C 117.546875 -1.851562 114.421875 -4.273438 111.953125 -7.390625 L 81.375 -44.390625 L 50.796875 -7.390625 C 48.335938 -4.273438 45.253906 -1.851562 41.546875 -0.125 C 37.847656 1.601562 33.863281 2.46875 29.59375 2.46875 C 24.65625 2.46875 20.128906 1.234375 16.015625 -1.234375 C 11.910156 -3.703125 8.625 -6.988281 6.15625 -11.09375 C 3.695312 -15.207031 2.46875 -19.726562 2.46875 -24.65625 C 2.46875 -31.394531 4.601562 -37.148438 8.875 -41.921875 L 46.359375 -86.3125 L 8.875 -130.703125 C 6.90625 -133.171875 5.34375 -135.882812 4.1875 -138.84375 C 3.039062 -141.800781 2.46875 -144.84375 2.46875 -147.96875 C 2.46875 -152.894531 3.695312 -157.410156 6.15625 -161.515625 C 8.625 -165.628906 11.910156 -168.921875 16.015625 -171.390625 C 20.128906 -173.859375 24.65625 -175.09375 29.59375 -175.09375 Z M 29.59375 -175.09375 "/></g></g></g><g fill="#000000" fill-opacity="1"><g transform="translate(7.069951, 260.242136)"><g><path d="M 29.59375 -179.71875 C 39.566406 -179.71875 47.8125 -175.886719 54.324219 -168.222656 L 84.945312 -131.183594 L 81.382812 -128.238281 L 77.816406 -131.183594 L 108.398438 -168.175781 L 111.960938 -165.230469 L 108.261719 -168.003906 C 111.21875 -171.945312 114.960938 -174.898438 119.488281 -176.867188 C 123.859375 -178.765625 128.417969 -179.71875 133.167969 -179.71875 C 138.957031 -179.71875 144.269531 -178.265625 149.113281 -175.359375 C 153.882812 -172.496094 157.699219 -168.679688 160.5625 -163.910156 C 163.46875 -159.066406 164.921875 -153.753906 164.921875 -147.964844 C 164.921875 -144.265625 164.242188 -140.664062 162.878906 -137.164062 C 161.558594 -133.765625 159.761719 -130.648438 157.496094 -127.816406 L 157.457031 -127.765625 L 119.933594 -83.332031 L 116.398438 -86.3125 L 119.933594 -89.296875 L 157.417969 -44.90625 L 153.882812 -41.921875 L 157.328125 -45.011719 C 162.390625 -39.363281 164.921875 -32.582031 164.921875 -24.660156 C 164.921875 -18.875 163.46875 -13.5625 160.5625 -8.71875 C 157.699219 -3.949219 153.882812 -0.128906 149.113281 2.730469 C 144.269531 5.636719 138.957031 7.089844 133.167969 7.089844 C 128.390625 7.089844 123.804688 6.085938 119.410156 4.082031 C 114.953125 2.046875 111.257812 -0.824219 108.332031 -4.53125 L 111.960938 -7.398438 L 108.398438 -4.453125 L 77.816406 -41.445312 L 81.382812 -44.390625 L 84.945312 -41.445312 L 54.367188 -4.453125 L 50.800781 -7.398438 L 54.429688 -4.53125 C 51.511719 -0.835938 47.871094 2.03125 43.507812 4.066406 C 39.191406 6.082031 34.550781 7.089844 29.59375 7.089844 C 23.808594 7.089844 18.492188 5.636719 13.652344 2.730469 C 8.878906 -0.128906 5.0625 -3.949219 2.199219 -8.71875 C -0.707031 -13.5625 -2.15625 -18.875 -2.15625 -24.660156 C -2.15625 -32.582031 0.371094 -39.363281 5.433594 -45.011719 L 8.878906 -41.921875 L 5.34375 -44.90625 L 42.828125 -89.296875 L 46.363281 -86.3125 L 42.828125 -83.332031 L 5.304688 -127.765625 L 5.265625 -127.816406 C 3 -130.648438 1.203125 -133.765625 -0.117188 -137.164062 C -1.476562 -140.664062 -2.15625 -144.265625 -2.15625 -147.964844 C -2.15625 -153.753906 -0.707031 -159.066406 2.199219 -163.910156 C 5.0625 -168.679688 8.878906 -172.496094 13.652344 -175.359375 C 18.492188 -178.265625 23.808594 -179.71875 29.59375 -179.71875 Z M 29.59375 -170.46875 C 25.515625 -170.46875 21.785156 -169.457031 18.410156 -167.429688 C 14.960938 -165.359375 12.199219 -162.601562 10.128906 -159.152344 C 8.105469 -155.773438 7.089844 -152.042969 7.089844 -147.964844 C 7.089844 -145.421875 7.5625 -142.9375 8.503906 -140.515625 C 9.480469 -137.996094 10.8125 -135.691406 12.488281 -133.59375 L 8.878906 -130.703125 L 12.410156 -133.6875 L 52.414062 -86.3125 L 12.367188 -38.886719 L 12.320312 -38.835938 C 8.832031 -34.949219 7.089844 -30.222656 7.089844 -24.660156 C 7.089844 -20.582031 8.105469 -16.855469 10.128906 -13.476562 C 12.199219 -10.027344 14.960938 -7.269531 18.410156 -5.199219 C 21.785156 -3.171875 25.515625 -2.15625 29.59375 -2.15625 C 33.183594 -2.15625 36.519531 -2.875 39.597656 -4.3125 C 42.632812 -5.730469 45.160156 -7.714844 47.171875 -10.261719 L 47.203125 -10.304688 L 81.382812 -51.648438 L 115.558594 -10.304688 L 115.589844 -10.261719 C 117.59375 -7.722656 120.148438 -5.746094 123.253906 -4.328125 C 126.425781 -2.882812 129.730469 -2.15625 133.167969 -2.15625 C 137.246094 -2.15625 140.976562 -3.171875 144.355469 -5.199219 C 147.804688 -7.269531 150.5625 -10.027344 152.632812 -13.476562 C 154.660156 -16.855469 155.671875 -20.582031 155.671875 -24.660156 C 155.671875 -30.222656 153.929688 -34.949219 150.441406 -38.835938 L 150.394531 -38.886719 L 110.347656 -86.3125 L 150.351562 -133.6875 L 153.882812 -130.703125 L 150.273438 -133.59375 C 151.953125 -135.691406 153.28125 -137.996094 154.261719 -140.515625 C 155.203125 -142.9375 155.671875 -145.421875 155.671875 -147.964844 C 155.671875 -152.042969 154.660156 -155.773438 152.632812 -159.152344 C 150.5625 -162.601562 147.804688 -165.359375 144.355469 -167.429688 C 140.976562 -169.457031 137.246094 -170.46875 133.167969 -170.46875 C 129.699219 -170.46875 126.371094 -169.773438 123.175781 -168.386719 C 120.140625 -167.066406 117.636719 -165.089844 115.660156 -162.453125 L 115.59375 -162.367188 L 81.382812 -120.980469 L 47.277344 -162.234375 C 42.613281 -167.722656 36.714844 -170.46875 29.59375 -170.46875 Z M 29.59375 -170.46875 "/></g></g></g></g></g></svg>